<svg xmlns="http://www.w3.org/2000/svg" viewBox="0 0 48 48"><defs><style>.cls-1{fill:#1FCCE8;}</style></defs><title>full screen button</title><g id="Layer_1" data-name="Layer 1"><path class="cls-1" d="M19.45,4a1,1,0,0,0-1-1H4A1,1,0,0,0,3,4V18.45a1,1,0,0,0,1,1H9.91a1,1,0,0,0,1-1V11.91a1,1,0,0,1,1-1h6.54a1,1,0,0,0,1-1Z"/><path class="cls-1" d="M19.45,44a1,1,0,0,1-1,1H4a1,1,0,0,1-1-1V29.55a1,1,0,0,1,1-1H9.91a1,1,0,0,1,1,1v6.54a1,1,0,0,0,1,1h6.54a1,1,0,0,1,1,1Z"/><path class="cls-1" d="M28.55,4a1,1,0,0,1,1-1H44a1,1,0,0,1,1,1V18.45a1,1,0,0,1-1,1H38.09a1,1,0,0,1-1-1V11.91a1,1,0,0,0-1-1H29.55a1,1,0,0,1-1-1Z"/><path class="cls-1" d="M28.55,44a1,1,0,0,0,1,1H44a1,1,0,0,0,1-1V29.55a1,1,0,0,0-1-1H38.09a1,1,0,0,0-1,1v6.54a1,1,0,0,1-1,1H29.55a1,1,0,0,0-1,1Z"/></g></svg>
