<svg xmlns="http://www.w3.org/2000/svg" viewBox="0 0 48 48"><defs><style>.cls-1{fill:#1FCCE8;}</style></defs><title>mute button</title><g id="Layer_1" data-name="Layer 1"><path class="cls-1" d="M12.05,14.73H4a1,1,0,0,0-1,1V32.27a1,1,0,0,0,1,1h8.05a1,1,0,0,1,.58.19l9.78,7A1,1,0,0,0,24,39.67V8.33a1,1,0,0,0-1.58-.81l-9.78,7A1,1,0,0,1,12.05,14.73Z"/><path class="cls-1" d="M44.65,18.66,41.39,15.4a.94.94,0,0,0-1.33,0l-3.34,3.34a.94.94,0,0,1-1.33,0L32,15.4a.94.94,0,0,0-1.33,0l-3.26,3.26a.94.94,0,0,0,0,1.33l3.34,3.34a.94.94,0,0,1,0,1.33L27.44,28a.94.94,0,0,0,0,1.33L30.7,32.6a.94.94,0,0,0,1.33,0l3.34-3.34a.94.94,0,0,1,1.33,0l3.34,3.34a.94.94,0,0,0,1.33,0l3.26-3.26a.94.94,0,0,0,0-1.33L41.3,24.67a.94.94,0,0,1,0-1.33L44.65,20A.94.94,0,0,0,44.65,18.66Z"/></g></svg>
