<svg xmlns="http://www.w3.org/2000/svg" viewBox="0 0 48 48"><defs><style>.cls-1{fill:#1FCCE8;}</style></defs><title>volume button</title><g id="Layer_1" data-name="Layer 1"><path class="cls-1" d="M27.25,4.48V9.55a1,1,0,0,0,.81,1,13.79,13.79,0,0,1,0,26.95,1,1,0,0,0-.81,1v5.07a1,1,0,0,0,1.23,1,21,21,0,0,0,0-41A1,1,0,0,0,27.25,4.48Z"/><path class="cls-1" d="M27.25,15.62V32.38a1,1,0,0,0,1.27,1,9.75,9.75,0,0,0,0-18.69A1,1,0,0,0,27.25,15.62Z"/><path class="cls-1" d="M12.05,14.73H4a1,1,0,0,0-1,1V32.27a1,1,0,0,0,1,1h8.05a1,1,0,0,1,.58.19l9.78,7A1,1,0,0,0,24,39.67V8.33a1,1,0,0,0-1.58-.81l-9.78,7A1,1,0,0,1,12.05,14.73Z"/></g></svg>
